<?xml version="1.0" encoding="UTF-8"?>
<!DOCTYPE svg PUBLIC "-//W3C//DTD SVG 1.1//EN" "http://www.w3.org/Graphics/SVG/1.1/DTD/svg11.dtd">
<svg xmlns="http://www.w3.org/2000/svg" version="1.1" width="414px" height="119px" style="shape-rendering:geometricPrecision; text-rendering:geometricPrecision; image-rendering:optimizeQuality; fill-rule:evenodd; clip-rule:evenodd" xmlns:xlink="http://www.w3.org/1999/xlink">
<g><path style="opacity:1" fill="#fdfdfe" d="M -0.5,-0.5 C 137.5,-0.5 275.5,-0.5 413.5,-0.5C 413.5,39.1667 413.5,78.8333 413.5,118.5C 275.5,118.5 137.5,118.5 -0.5,118.5C -0.5,78.8333 -0.5,39.1667 -0.5,-0.5 Z"/></g>
<g><path style="opacity:1" fill="#675fec" d="M 94.5,94.5 C 94.5,94.1667 94.5,93.8333 94.5,93.5C 94.9101,87.3792 94.4101,81.3792 93,75.5C 82.8748,67.7103 73.0415,59.5436 63.5,51C 58.983,48.6417 54.983,49.3084 51.5,53C 41.8665,61.0584 32.3665,69.2251 23,77.5C 22.5006,83.1569 22.3339,88.8236 22.5,94.5C 16.6974,100.064 11.1974,99.7311 6,93.5C 4.38935,80.2364 4.05601,66.9031 5,53.5C 6.4578,51.04 8.29113,48.8734 10.5,47C 24.5,35.6667 38.5,24.3333 52.5,13C 57.9853,10.5341 62.9853,11.2007 67.5,15C 82.6264,27.1242 97.4597,39.6242 112,52.5C 112.667,65.8333 112.667,79.1667 112,92.5C 106.867,99.5509 101.034,100.218 94.5,94.5 Z"/></g>
<g><path style="opacity:1" fill="#675fed" d="M 386.5,16.5 C 390.5,16.5 394.5,16.5 398.5,16.5C 398.5,32.5 398.5,48.5 398.5,64.5C 394.5,64.5 390.5,64.5 386.5,64.5C 386.5,48.5 386.5,32.5 386.5,16.5 Z"/></g>
<g><path style="opacity:1" fill="#675fed" d="M 314.5,18.5 C 318.5,18.5 322.5,18.5 326.5,18.5C 326.5,21.5 326.5,24.5 326.5,27.5C 322.5,27.5 318.5,27.5 314.5,27.5C 314.5,24.5 314.5,21.5 314.5,18.5 Z"/></g>
<g><path style="opacity:1" fill="#6b62ed" d="M 164.5,31.5 C 175.565,31.2698 186.565,31.9365 197.5,33.5C 198.487,37.8862 196.821,40.2195 192.5,40.5C 182.85,39.4407 173.184,39.274 163.5,40C 162.167,41 162.167,42 163.5,43C 171.797,44.0722 180.13,44.7388 188.5,45C 198.386,45.9539 201.886,51.1206 199,60.5C 196.134,63.3485 192.634,64.8485 188.5,65C 176.411,65.9732 164.411,65.4732 152.5,63.5C 152.575,60.7938 152.908,58.1272 153.5,55.5C 164.751,57.4234 176.084,57.9234 187.5,57C 188.337,55.9887 188.67,54.8221 188.5,53.5C 179.533,52.7511 170.533,52.2511 161.5,52C 153.2,50.5733 150.034,45.7399 152,37.5C 155.332,33.5063 159.498,31.5063 164.5,31.5 Z"/></g>
<g><path style="opacity:1" fill="#6961ed" d="M 217.5,31.5 C 225.174,31.3336 232.841,31.5003 240.5,32C 257.154,34.1439 262.321,42.9772 256,58.5C 251.542,62.2124 246.376,64.379 240.5,65C 232.833,65.6667 225.167,65.6667 217.5,65C 205.326,62.8327 200.16,55.6661 202,43.5C 205.268,36.9599 210.434,32.9599 217.5,31.5 Z"/></g>
<g><path style="opacity:1" fill="#6a62ed" d="M 277.5,31.5 C 288.583,31.1265 299.583,31.7931 310.5,33.5C 310.545,37.351 309.379,40.6844 307,43.5C 297.559,41.9373 288.059,41.4373 278.5,42C 273.706,43.8674 272.206,47.3674 274,52.5C 275.419,53.4601 276.919,54.2935 278.5,55C 288.878,55.4407 299.211,54.9407 309.5,53.5C 310.051,56.8067 310.384,60.1401 310.5,63.5C 299.245,65.3857 287.912,65.8857 276.5,65C 263.689,62.2269 258.856,54.3935 262,41.5C 265.536,35.4905 270.703,32.1572 277.5,31.5 Z"/></g>
<g><path style="opacity:1" fill="#6961ed" d="M 347.5,31.5 C 359.239,31.1841 370.906,31.8508 382.5,33.5C 382.5,43.8333 382.5,54.1667 382.5,64.5C 378.833,64.5 375.167,64.5 371.5,64.5C 371.762,63.0222 371.429,61.6888 370.5,60.5C 360.235,65.4945 349.568,66.6612 338.5,64C 333.664,62.1814 330.831,58.6814 330,53.5C 328.621,40.3833 334.454,33.05 347.5,31.5 Z"/></g>
<g><path style="opacity:1" fill="#675fed" d="M 314.5,32.5 C 318.5,32.5 322.5,32.5 326.5,32.5C 326.5,43.1667 326.5,53.8333 326.5,64.5C 322.5,64.5 318.5,64.5 314.5,64.5C 314.5,53.8333 314.5,43.1667 314.5,32.5 Z"/></g>
<g><path style="opacity:1" fill="#fbfafe" d="M 220.5,41.5 C 228.44,41.0941 236.274,41.7608 244,43.5C 246.365,45.6506 247.031,48.3172 246,51.5C 244.992,53.259 243.492,54.4257 241.5,55C 233.089,55.9054 224.755,55.5721 216.5,54C 211.638,47.7961 212.971,43.6294 220.5,41.5 Z"/></g>
<g><path style="opacity:1" fill="#fafafe" d="M 346.5,41.5 C 354.5,41.5 362.5,41.5 370.5,41.5C 370.5,45.1667 370.5,48.8333 370.5,52.5C 366.149,53.1703 361.816,54.0036 357.5,55C 352.442,56.0104 347.609,55.5104 343,53.5C 340.255,48.2483 341.422,44.2483 346.5,41.5 Z"/></g>
<g><path style="opacity:1" fill="#6a2465" d="M 94.5,93.5 C 82.2514,84.5966 70.2514,75.2632 58.5,65.5C 46.4977,74.8424 34.831,84.5091 23.5,94.5C 23.1667,94.5 22.8333,94.5 22.5,94.5C 22.3339,88.8236 22.5006,83.1569 23,77.5C 32.3665,69.2251 41.8665,61.0584 51.5,53C 54.983,49.3084 58.983,48.6417 63.5,51C 73.0415,59.5436 82.8748,67.7103 93,75.5C 94.4101,81.3792 94.9101,87.3792 94.5,93.5 Z"/></g>
<g><path style="opacity:1" fill="#fd5c6c" d="M 94.5,93.5 C 94.5,93.8333 94.5,94.1667 94.5,94.5C 95.1428,105.057 90.8095,108.224 81.5,104C 73.9779,97.6436 66.3112,91.4769 58.5,85.5C 49.977,92.5239 41.3103,99.3572 32.5,106C 24.2833,106.595 21.2833,102.762 23.5,94.5C 34.831,84.5091 46.4977,74.8424 58.5,65.5C 70.2514,75.2632 82.2514,84.5966 94.5,93.5 Z"/></g>
<g><path style="opacity:1" fill="#7d7d7d" d="M 151.5,82.5 C 151.56,81.9569 151.893,81.6236 152.5,81.5C 153.487,84.7683 153.82,88.1016 153.5,91.5C 152.833,88.5 152.167,85.5 151.5,82.5 Z"/></g>
<g><path style="opacity:1" fill="#2d2d2d" d="M 151.5,82.5 C 152.167,85.5 152.833,88.5 153.5,91.5C 154.932,93.6469 156.765,93.9802 159,92.5C 160.331,77.8333 160.997,77.8333 161,92.5C 158,95.1667 155,95.1667 152,92.5C 151.502,89.1832 151.335,85.8499 151.5,82.5 Z"/></g>
<g><path style="opacity:1" fill="#6b6b6b" d="M 176.5,81.5 C 177.8,83.223 178.467,85.3897 178.5,88C 178.167,90.1667 177.833,92.3333 177.5,94.5C 176.508,90.2172 176.174,85.8839 176.5,81.5 Z"/></g>
<g><path style="opacity:1" fill="#5e5e5e" d="M 181.5,81.5 C 183.337,81.6395 183.67,82.3061 182.5,83.5C 181.702,83.0431 181.369,82.3764 181.5,81.5 Z"/></g>
<g><path style="opacity:1" fill="#676767" d="M 204.5,81.5 C 206.337,81.6395 206.67,82.3061 205.5,83.5C 204.702,83.0431 204.369,82.3764 204.5,81.5 Z"/></g>
<g><path style="opacity:1" fill="#7c7c7c" d="M 235.5,82.5 C 235.56,81.9569 235.893,81.6236 236.5,81.5C 237.811,85.9838 237.811,90.3171 236.5,94.5C 236.817,90.2984 236.483,86.2984 235.5,82.5 Z"/></g>
<g><path style="opacity:1" fill="#333333" d="M 251.5,86.5 C 252.163,84.9581 252.83,83.2914 253.5,81.5C 254.492,85.7828 254.826,90.1161 254.5,94.5C 248.014,96.1654 245.181,93.832 246,87.5C 247.678,85.4468 249.511,85.1134 251.5,86.5 Z"/></g>
<g><path style="opacity:1" fill="#5d5d5d" d="M 274.5,81.5 C 276.337,81.6395 276.67,82.3061 275.5,83.5C 274.702,83.0431 274.369,82.3764 274.5,81.5 Z"/></g>
<g><path style="opacity:1" fill="#545454" d="M 298.5,81.5 C 299.8,83.223 300.467,85.3897 300.5,88C 300.167,90.1667 299.833,92.3333 299.5,94.5C 298.508,90.2172 298.174,85.8839 298.5,81.5 Z"/></g>
<g><path style="opacity:1" fill="#3b3b3b" d="M 210.5,82.5 C 212.057,83.4663 213.39,84.7996 214.5,86.5C 211.895,89.0886 211.895,91.5886 214.5,94C 213.216,94.6838 212.049,94.5171 211,93.5C 210.083,89.6985 209.917,86.0318 210.5,82.5 Z"/></g>
<g><path style="opacity:1" fill="#171717" d="M 165.5,85.5 C 167.571,85.4977 169.738,85.8311 172,86.5C 172.667,89.1667 172.667,91.8333 172,94.5C 171.667,92.1667 171.333,89.8333 171,87.5C 169.413,86.273 168.079,86.6063 167,88.5C 166.667,90.5 166.333,92.5 166,94.5C 165.502,91.5184 165.335,88.5184 165.5,85.5 Z"/></g>
<g><path style="opacity:1" fill="#282828" d="M 235.5,82.5 C 236.483,86.2984 236.817,90.2984 236.5,94.5C 235.833,94.1667 235.167,93.8333 234.5,93.5C 232.965,94.7879 231.299,94.7879 229.5,93.5C 227.272,87.578 229.105,85.2446 235,86.5C 235.49,85.2068 235.657,83.8734 235.5,82.5 Z"/></g>
<g><path style="opacity:1" fill="#262626" d="M 268.5,86.5 C 269.496,86.5858 270.329,86.2524 271,85.5C 271.667,89.1667 271.667,92.8333 271,96.5C 269.192,98.3959 267.025,98.8959 264.5,98C 266.619,97.9024 268.286,97.0691 269.5,95.5C 262.672,94.8688 261.005,91.7022 264.5,86C 266.066,85.235 267.399,85.4017 268.5,86.5 Z"/></g>
<g><path style="opacity:1" fill="#6f6f6f" d="M 333.5,86.5 C 332.527,88.9479 332.194,91.6146 332.5,94.5C 331.197,91.6447 331.197,88.6447 332.5,85.5C 333.107,85.6236 333.44,85.9569 333.5,86.5 Z"/></g>
<g><path style="opacity:1" fill="#353535" d="M 332.5,94.5 C 332.194,91.6146 332.527,88.9479 333.5,86.5C 336.49,86.0007 339.49,85.6673 342.5,85.5C 344.029,85.5288 345.196,86.1955 346,87.5C 345.993,96.8336 345.327,96.8336 344,87.5C 342.413,86.273 341.079,86.6063 340,88.5C 339.667,90.5 339.333,92.5 339,94.5C 338.503,92.1902 338.337,89.8568 338.5,87.5C 336.833,87.5 335.167,87.5 333.5,87.5C 333.802,90.0593 333.468,92.3926 332.5,94.5 Z"/></g>
<g><path style="opacity:1" fill="#1c1c1c" d="M 378.5,85.5 C 379.806,85.879 381.139,86.2124 382.5,86.5C 379.983,88.4573 378.816,91.1239 379,94.5C 378.502,91.5184 378.335,88.5184 378.5,85.5 Z"/></g>
<g><path style="opacity:1" fill="#585858" d="M 204.5,85.5 C 205.765,86.5145 206.431,88.0145 206.5,90C 206.167,91.5 205.833,93 205.5,94.5C 204.516,91.5719 204.183,88.5719 204.5,85.5 Z"/></g>
<g><path style="opacity:1" fill="#f4f4f4" d="M 234.5,93.5 C 230.775,93.2204 229.608,91.2204 231,87.5C 232.587,86.273 233.921,86.6063 235,88.5C 235.64,90.265 235.473,91.9317 234.5,93.5 Z"/></g>
<g><path style="opacity:1" fill="#efefef" d="M 251.5,86.5 C 253.213,89.4482 252.713,91.7816 250,93.5C 249.228,93.3552 248.561,93.0219 248,92.5C 246.608,88.7796 247.775,86.7796 251.5,86.5 Z"/></g>
<g><path style="opacity:1" fill="#ececec" d="M 268.5,86.5 C 270.213,89.4482 269.713,91.7816 267,93.5C 265.115,93.1379 264.281,91.9713 264.5,90C 264.822,87.6729 266.156,86.5062 268.5,86.5 Z"/></g>
<g><path style="opacity:1" fill="#3a3a3a" d="M 274.5,85.5 C 275.765,86.5145 276.431,88.0145 276.5,90C 276.167,91.5 275.833,93 275.5,94.5C 274.516,91.5719 274.183,88.5719 274.5,85.5 Z"/></g>
<g><path style="opacity:1" fill="#0f0f0f" d="M 352.5,86.5 C 350.93,88.8511 350.097,91.5177 350,94.5C 349.333,91.5 349.333,88.5 350,85.5C 350.671,86.2524 351.504,86.5858 352.5,86.5 Z"/></g>
<g><path style="opacity:1" fill="#202020" d="M 219.5,85.5 C 223.938,84.4251 225.938,86.0917 225.5,90.5C 223.396,90.2011 221.396,90.5344 219.5,91.5C 220.748,93.69 222.414,94.0234 224.5,92.5C 225.696,92.8457 225.696,93.3457 224.5,94C 217.421,94.5273 215.754,91.694 219.5,85.5 Z"/></g>
<g><path style="opacity:1" fill="#c9c9c9" d="M 220.5,86.5 C 225.965,89.2249 225.632,89.8916 219.5,88.5C 219.863,87.8165 220.196,87.1499 220.5,86.5 Z"/></g>
<g><path style="opacity:1" fill="#383838" d="M 186.5,85.5 C 190.677,86.13 195.011,86.2966 199.5,86C 201.65,88.5551 201.983,91.3884 200.5,94.5C 198.465,83.9291 196.298,83.9291 194,94.5C 193.667,92.5 193.333,90.5 193,88.5C 191.644,87.6198 190.144,87.2865 188.5,87.5C 188.808,89.924 188.474,92.2573 187.5,94.5C 186.516,91.5719 186.183,88.5719 186.5,85.5 Z"/></g>
<g><path style="opacity:1" fill="#343434" d="M 352.5,86.5 C 354.153,85.2006 355.653,85.5339 357,87.5C 358.466,85.6751 360.299,85.1751 362.5,86C 363.61,88.7372 363.777,91.5706 363,94.5C 362.764,92.236 362.264,90.0693 361.5,88C 360.216,87.3162 359.049,87.4829 358,88.5C 356.749,96.1967 355.749,95.8633 355,87.5C 354.329,86.7476 353.496,86.4142 352.5,86.5 Z"/></g>
<g><path style="opacity:1" fill="#545454" d="M 181.5,85.5 C 182.765,86.5145 183.431,88.0145 183.5,90C 183.167,91.5 182.833,93 182.5,94.5C 181.516,91.5719 181.183,88.5719 181.5,85.5 Z"/></g>
<g><path style="opacity:1" fill="#636363" d="M 257.5,85.5 C 258.765,86.5145 259.431,88.0145 259.5,90C 259.167,91.5 258.833,93 258.5,94.5C 257.516,91.5719 257.183,88.5719 257.5,85.5 Z"/></g>
<g><path style="opacity:1" fill="#2f2f2f" d="M 310.5,85.5 C 312.467,85.2606 314.301,85.5939 316,86.5C 316.667,87.1667 316.667,87.8333 316,88.5C 313.442,85.8503 311.608,86.3503 310.5,90C 311.196,93.522 313.196,94.3553 316.5,92.5C 317.696,92.8457 317.696,93.3457 316.5,94C 308.807,95.1433 306.807,92.31 310.5,85.5 Z"/></g>
<g><path style="opacity:1" fill="#1d1d1d" d="M 387.5,85.5 C 389.429,85.2308 391.095,85.7308 392.5,87C 388.11,86.0553 386.277,87.8887 387,92.5C 388.796,93.767 390.629,93.767 392.5,92.5C 393.696,92.8457 393.696,93.3457 392.5,94C 385.237,94.8209 383.571,91.9876 387.5,85.5 Z"/></g>
<g><path style="opacity:1" fill="#323232" d="M 280.5,82.5 C 281.931,83.4458 283.264,84.6125 284.5,86C 282.709,88.1062 282.042,90.6062 282.5,93.5C 283.552,93.3505 284.552,93.5172 285.5,94C 283.888,94.7203 282.388,94.5536 281,93.5C 279.922,89.7708 279.755,86.1041 280.5,82.5 Z"/></g>
<g><path style="opacity:1" fill="#2b2b2b" d="M 289.5,85.5 C 291.722,85.178 293.556,85.8446 295,87.5C 295.497,89.8098 295.663,92.1432 295.5,94.5C 292.881,94.7683 290.381,94.435 288,93.5C 287.316,92.2161 287.483,91.0495 288.5,90C 290.256,89.7978 291.922,89.2978 293.5,88.5C 293.167,87.5 292.5,86.8333 291.5,86.5C 289.114,87.9884 288.448,87.6551 289.5,85.5 Z"/></g>
<g><path style="opacity:1" fill="#f3f3f3" d="M 289.5,90.5 C 290.978,90.238 292.311,90.5713 293.5,91.5C 292.68,93.1112 291.346,93.7778 289.5,93.5C 289.5,92.5 289.5,91.5 289.5,90.5 Z"/></g>
<g><path style="opacity:1" fill="#282828" d="M 321.5,85.5 C 327,84.8314 329.167,87.1647 328,92.5C 327.995,89.7708 326.829,87.7708 324.5,86.5C 321.58,87.9681 320.913,90.1348 322.5,93C 323.833,93.3333 325.167,93.6667 326.5,94C 319.413,94.5578 317.746,91.7245 321.5,85.5 Z"/></g>
<g><path style="opacity:1" fill="#2a2a2a" d="M 368.5,85.5 C 372.145,84.6797 374.478,86.013 375.5,89.5C 373.167,90.1667 370.833,90.8333 368.5,91.5C 370.099,93.7288 372.099,94.0622 374.5,92.5C 375.696,92.8457 375.696,93.3457 374.5,94C 366.749,95.0913 364.749,92.258 368.5,85.5 Z"/></g>
<g><path style="opacity:1" fill="#c7c7c7" d="M 369.5,86.5 C 371.346,86.2222 372.68,86.8888 373.5,88.5C 371.833,89.8333 370.167,89.8333 368.5,88.5C 368.863,87.8165 369.196,87.1499 369.5,86.5 Z"/></g>
<g><path style="opacity:1" fill="#202020" d="M 397.5,85.5 C 401.851,84.533 404.185,86.1996 404.5,90.5C 402.076,90.1924 399.743,90.5258 397.5,91.5C 399.099,93.7288 401.099,94.0622 403.5,92.5C 404.696,92.8457 404.696,93.3457 403.5,94C 401.5,94.6667 399.5,94.6667 397.5,94C 396.321,91.2043 396.321,88.3709 397.5,85.5 Z"/></g>
<g><path style="opacity:1" fill="#cbcbcb" d="M 399.5,86.5 C 400.995,86.4148 401.995,87.0815 402.5,88.5C 400.926,89.6309 399.259,89.7975 397.5,89C 398.381,88.2917 399.047,87.4584 399.5,86.5 Z"/></g>
</svg>
